# xmcd
#
# Track frame offsets: 
#        150
#        18356
#        37673
#        57726
#        77771
#        95182
#        113742
#        132823
#        147547
#        163294
#        180249
#        197993
#        208834
#        225143
#        246011
#        265236
#        285253
#
# Disc length: 3956 seconds
#
# Revision: 0
# Processed by: cddbd v1.5.2PL0 Copyright (c) Steve Scherf et al.
# Submitted via: ExactAudioCopyFreeDBPlugin 1.0
#
DISCID=eb0f7211
DTITLE=omnibus - Christmas Eve
DYEAR=1900
DGENRE=Ballad
TTITLE0=恋人たちのクリスマス
TTITLE1=クリスマス・タイム
TTITLE2=ザ・クリスマス・ソング
TTITLE3=ラスト・クリスマス
TTITLE4=ドゥ・ゼィ・ノウ・イッツ・クリスマス？
TTITLE5=ホーム・オン・クリスマス・デイ
TTITLE6=メリー・クリスマス・ハッピー・ホリデイ
TTITLE7=ザ・ファースト・ノエル
TTITLE8=あなたに楽しいクリスマスを
TTITLE9=スレイ・ライド
TTITLE10=天使たちのクリスマス
TTITLE11=神の御子は今宵しも
TTITLE12=ホワイト・クリスマス
TTITLE13=ドント・セイヴ・イット・オール・フォー・クリスマス・デイ
TTITLE14=マイ・オンリー・ウィッシュ
TTITLE15=とっておきの愛
TTITLE16=サイレント・ナイト
EXTD=
EXTT0=
EXTT1=
EXTT2=
EXTT3=
EXTT4=
EXTT5=
EXTT6=
EXTT7=
EXTT8=
EXTT9=
EXTT10=
EXTT11=
EXTT12=
EXTT13=
EXTT14=
EXTT15=
EXTT16=
PLAYORDER=
